<svg xmlns="http://www.w3.org/2000/svg" width="63" height="63" viewBox="0 0 63 63">
  <path fill="#010101" d="M52.3 42.6s1.3-1 2.7-4.2c2.6-6-1-8-1-8s.5 1.4-1 2.6c-.6.6-1.8.7-3 .5-.7 0-2-.8-2-.8L31.3 18.2S20 24.5 15.8 26.6c-1.4.7-6 1-7-1.8 0 0-2 11 7.5 9l16.3-8.3 8.7 9c2.3 2.4 11 8 11 8z"/>
  <path fill="#F285B5" stroke="#000" stroke-width="2" stroke-miterlimit="10" d="M51.3 42.3s-6-5.7-8.4-8.3c-2-2.3-11-9-11-9l-6 2.4L10 7.6 18.5 32l-2.2 2.3s-2.2 7.5-3.5 10.5l1.2 3.8s3.5 1 4.5.5c1-.4 1.3-2.7 1.3-2.7l7-4.6s1.7 3.4 2 5.2c.4 2.5-.7 3.5.7 12.6 0 0 9.2-4.3 11.7-6.3 2.2-1.7 10-11 10-11z"/>
  <linearGradient id="a" gradientUnits="userSpaceOnUse" x1="10" y1="19.9" x2="25.8" y2="19.9">
    <stop offset="0" stop-color="#E02C26"/>
    <stop offset=".1" stop-color="#E12D27"/>
    <stop offset=".1" stop-color="#E22D2E"/>
    <stop offset=".2" stop-color="#E32D35"/>
    <stop offset=".2" stop-color="#E33635"/>
    <stop offset=".2" stop-color="#E54A34"/>
    <stop offset=".2" stop-color="#E76433"/>
    <stop offset=".2" stop-color="#EA832F"/>
    <stop offset=".2" stop-color="#EFA726"/>
    <stop offset=".2" stop-color="#F5C913"/>
    <stop offset=".3" stop-color="#F4C221"/>
    <stop offset=".4" stop-color="#F3B338"/>
    <stop offset=".4" stop-color="#F1BF38"/>
    <stop offset=".4" stop-color="#EDDD39"/>
    <stop offset=".4" stop-color="#ECE839"/>
    <stop offset=".5" stop-color="#EAE611"/>
    <stop offset=".5" stop-color="#C8DA2C"/>
    <stop offset=".5" stop-color="#6ABD45"/>
    <stop offset=".5" stop-color="#69BD45"/>
    <stop offset=".7" stop-color="#7AC253"/>
    <stop offset=".7" stop-color="#C95BA2"/>
    <stop offset=".8" stop-color="#C95BA2"/>
    <stop offset=".8" stop-color="#F06DA9"/>
    <stop offset="1" stop-color="#F06DA9"/>
  </linearGradient>
  <path fill="url(#a)" d="M19.6 32.2L10 7.6l15.8 21"/>
  <path d="M21.3 37.8l.2-1c.2-.8.5-1.7 1.2-2.5l.6-.5.7-.3H25l.4.3s.3 0 .4.2l.3.3.3.3h-.9-.4-.3-.3-.2-.5l-.5.3c-.6.4-1 1.2-1.3 1.8l-.6 1zM13.2 47.3l.7-.4c.3-.3 1-.5 1.4-1 .5-.2 1-.6 1.3-1 .2 0 .3-.3.3-.4v-.2.8L16 47l-1 1.3-.6.6-1.2-1.7z"/>
  <path fill="#010101" d="M25.4 21.5s3.2-1.3 3.7-3.8c.4-1.4-1.2-3.5-2.7-2.2 0 0 4-4.5 8-1 0 0 4 3.7 1 8.6"/>
  <path fill="#F285B5" d="M28.2 28.2s-.4-4.6 1.5-8.6c0 0 5.3 2.8 2 8.6"/>
  <path fill="#010101" d="M41.3 27s7 3.3 8.2-3.8c0 0 5 5-1.4 10.8"/>
  <path fill="#010101" d="M34.8 21.5s3.7 1.8 6-.7c1.2-1.2.6-4.7-.8-4.6 0 0 3.8-.7 5.7 3.4 0 0 2.3 4.8-3 9"/>
  <path fill="#931F60" d="M27.3 40.6s1.5 2 4.8.3v6c0 5.5-1.7 11-1.7 11s-1-6-.5-11.3l-2.5-6zM28.2 27.6s-.4-4 1.5-8c0 0 2.4 4 1.2 7.3 0 0-1.5 0-2.8.6z"/>
  <path d="M32.5 26.4S34 36 30.5 37c0 0 7.3.4 9-6.7"/>
  <path d="M39 31.7s2 5.4-2.5 8.7c0 0 8 1.5 9.3-3.4"/>
  <path d="M44.7 36s2 8-4.2 9.7c0 0 8.3 2.8 10.8-5"/>
</svg>
