<svg xmlns="http://www.w3.org/2000/svg" xmlns:xlink="http://www.w3.org/1999/xlink" width="16" height="16" viewBox="0 0 16 16"><defs><path id="twjma" d="M343.72 139.312a1.587 1.587 0 0 0-1.52-1.112h-.8v-2.4c0-.44-.36-.8-.8-.8h-4.8v-1.6h1.6c.44 0 .8-.36.8-.8V131h1.6c.88 0 1.6-.72 1.6-1.6v-.328c2.344.952 4 3.248 4 5.928 0 1.664-.64 3.176-1.68 4.312zm-5.52 2.032a6.39 6.39 0 0 1-5.6-6.344c0-.496.064-.968.168-1.432l3.832 3.832v.8c0 .88.72 1.6 1.6 1.6zM339 127c-4.416 0-8 3.584-8 8s3.584 8 8 8 8-3.584 8-8-3.584-8-8-8z"/></defs><g><g transform="translate(-331 -127)"><use fill="#ff6cab" xlink:href="#twjma"/></g></g></svg>