<svg xmlns="http://www.w3.org/2000/svg" xmlns:xlink="http://www.w3.org/1999/xlink" width="41" height="50" viewBox="0 0 41 50"><defs><path id="gaxka" d="M113.867 96.74s1.094-.923 2.204-3.48c2.17-5.005-.865-6.663-.865-6.663s.514 1.242-.635 2.233c-.62.535-1.571.567-2.472.44-.665-.095-1.769-.668-1.769-.668L96.684 76.706s-9.332 5.148-12.719 6.875c-1.148.586-4.987.734-5.811-1.45 0 0-1.7 8.888 6.205 7.298l13.333-6.756s5.398 5.515 7.197 7.428c1.853 1.972 8.979 6.639 8.979 6.639z"/><path id="gaxkb" d="M113.066 96.491s-5.033-4.704-6.914-6.845c-1.642-1.87-8.873-7.472-8.873-7.472l-4.927 2.114L79.197 68l6.965 19.968-1.803 1.974s-1.82 6.087-2.93 8.61l1 3.067s2.869.827 3.716.433c.866-.402 1.092-2.312 1.092-2.312l5.707-3.777s1.441 2.842 1.656 4.265c.318 2.113-.571 2.937.564 10.471 0 0 7.554-3.554 9.609-5.166 1.806-1.415 8.293-9.042 8.293-9.042z"/><path id="gaxkc" d="M87.081 88.203L79.197 68l12.904 17.293"/><path id="gaxke" d="M88.453 92.762s.037-.374.179-.922c.136-.55.402-1.281.963-1.902.123-.167.316-.285.479-.426.195-.1.39-.226.609-.25.108-.015.215-.031.319-.036.102.009.2.029.295.05.094.021.187.04.27.065.077.04.152.08.222.119.137.082.27.142.353.237.09.087.163.168.218.238.116.133.168.22.168.22l-.048.067s-.107-.008-.269-.039a3.128 3.128 0 0 1-.283-.056c-.102-.037-.226-.02-.345-.045a1.225 1.225 0 0 0-.372-.017c-.063.006-.126 0-.189 0-.06.02-.122.027-.185.038-.134-.015-.25.068-.396.085-.128.071-.278.119-.4.231-.52.398-.888 1.046-1.14 1.523-.25.487-.368.838-.368.838z"/><path id="gaxkf" d="M81.835 100.536s.218-.086.563-.252c.34-.163.79-.394 1.215-.662.425-.268.822-.576 1.06-.863.126-.14.2-.278.243-.38l.058-.17.011.183c0 .116-.019.294-.086.488-.124.399-.401.884-.718 1.332-.317.448-.67.866-.944 1.173-.27.302-.478.506-.478.506z"/><path id="gaxkg" d="M91.77 79.4s2.65-1.042 3.063-3.114c.229-1.145-1.069-2.827-2.327-1.788 0 0 3.225-3.72 6.706-.92 0 0 3.186 3.128.754 7.149"/><path id="gaxkh" d="M94.133 84.9s-.36-3.757 1.182-7.05c0 0 4.328 2.296 1.677 7.05"/><path id="gaxki" d="M104.89 83.86s5.756 2.738 6.69-3.058c0 0 4.015 4.099-1.153 8.842"/><path id="gaxkj" d="M99.557 79.405s2.99 1.48 4.908-.546c.955-1.009.459-3.861-.695-3.764 0 0 3.141-.595 4.685 2.755 0 0 1.87 3.936-2.577 7.373"/><path id="gaxkk" d="M93.402 95.086s1.22 1.73 3.864.229v4.959c0 4.568-1.48 9.103-1.48 9.103s-.789-4.956-.388-9.282c0 0-1.597-4.099-1.996-5.01z"/><path id="gaxkl" d="M94.105 84.409s-.332-3.266 1.21-6.56c0 0 1.985 3.266 1.01 5.983 0 0-1.17.08-2.22.577z"/><path id="gaxkm" d="M97.619 83.453s1.129 7.847-1.645 8.655c0 0 6.044.326 7.373-5.495"/><path id="gaxkn" d="M102.999 87.756s1.677 4.478-2.098 7.188c0 0 6.474 1.212 7.616-2.833"/><path id="gaxko" d="M107.622 91.207s1.578 6.762-3.421 8.061c0 0 6.782 2.268 8.866-4.031"/><linearGradient id="gaxkd" x1="79.2" x2="92.1" y1="78.11" y2="78.11" gradientUnits="userSpaceOnUse"><stop offset=".01" stop-color="#e02c26"/><stop offset=".07" stop-color="#e12d27"/><stop offset=".15" stop-color="#e22d2e"/><stop offset=".2" stop-color="#e32d35"/><stop offset=".2" stop-color="#e33635"/><stop offset=".2" stop-color="#e54a34"/><stop offset=".2" stop-color="#e76433"/><stop offset=".2" stop-color="#ea832f"/><stop offset=".2" stop-color="#efa726"/><stop offset=".2" stop-color="#f5c913"/><stop offset=".27" stop-color="#f4c221"/><stop offset=".36" stop-color="#f3b338"/><stop offset=".36" stop-color="#f1bf38"/><stop offset=".36" stop-color="#eddd39"/><stop offset=".36" stop-color="#ece839"/><stop offset=".51" stop-color="#eae611"/><stop offset=".51" stop-color="#c8da2c"/><stop offset=".52" stop-color="#6abd45"/><stop offset=".52" stop-color="#69bd45"/><stop offset=".67" stop-color="#7ac253"/><stop offset=".68" stop-color="#c95ba2"/><stop offset=".83" stop-color="#c95ba2"/><stop offset=".83" stop-color="#f06da9"/><stop offset=".98" stop-color="#f06da9"/></linearGradient></defs><g><g transform="translate(-76 -63)"><g><use fill="#010101" xlink:href="#gaxka"/></g><g><use fill="#f285b5" xlink:href="#gaxkb"/><use fill="#fff" fill-opacity="0" stroke="#000" stroke-miterlimit="50" stroke-width="2" xlink:href="#gaxkb"/></g><g><use fill="url(#gaxkd)" xlink:href="#gaxkc"/></g><g><g><use xlink:href="#gaxke"/></g></g><g><g><use xlink:href="#gaxkf"/></g></g><g><use fill="#010101" xlink:href="#gaxkg"/></g><g><use fill="#f285b5" xlink:href="#gaxkh"/></g><g><use fill="#010101" xlink:href="#gaxki"/></g><g><use fill="#010101" xlink:href="#gaxkj"/></g><g><use fill="#931f60" xlink:href="#gaxkk"/></g><g><use fill="#931f60" xlink:href="#gaxkl"/></g><g><use xlink:href="#gaxkm"/></g><g><use xlink:href="#gaxkn"/></g><g><use xlink:href="#gaxko"/></g></g></g></svg>